<?xml version="1.0" standalone="no"?><!DOCTYPE svg PUBLIC "-//W3C//DTD SVG 1.1//EN" "http://www.w3.org/Graphics/SVG/1.1/DTD/svg11.dtd"><svg t="1532179953149" class="icon" style="" viewBox="0 0 1024 1024" version="1.1" xmlns="http://www.w3.org/2000/svg" p-id="1408" xmlns:xlink="http://www.w3.org/1999/xlink" width="32" height="32"><defs><style type="text/css"></style></defs><path d="M889.151 64.223H134.69c-38.601 0-70.182 31.583-70.182 70.182v754.461c0 38.599 31.582 70.182 70.182 70.182h754.461c38.601 0 70.182-31.583 70.182-70.182V134.405c0-38.599-31.582-70.182-70.182-70.182z m-99.008 503.811h-90.234v338.378H575.837V568.034h-90.235V455.238h90.235V319.887c0-56.396 49.592-84.209 78.955-90.236 35.908-7.368 140.991-5.637 140.991-5.637v124.07h-78.955c-22.558 0-22.558 22.562-22.558 22.562v84.592h107.153l-11.28 112.796z" p-id="1409"></path></svg>