<?xml version="1.0" standalone="no"?><!DOCTYPE svg PUBLIC "-//W3C//DTD SVG 1.1//EN" "http://www.w3.org/Graphics/SVG/1.1/DTD/svg11.dtd"><svg t="1532180089279" class="icon" style="" viewBox="0 0 1024 1024" version="1.1" xmlns="http://www.w3.org/2000/svg" p-id="1605" xmlns:xlink="http://www.w3.org/1999/xlink" width="32" height="32"><defs><style type="text/css"></style></defs><path d="M512.274401 959.556658c247.17718 0 447.556658-200.366167 447.556658-447.556658 0-247.16387-200.379477-447.556658-447.556658-447.556658-247.188443 0-447.569968 200.392788-447.569968 447.556658 0 247.190491 200.382549 447.556658 447.569968 447.556658" fill="#78CBEF" p-id="1606"></path><path d="M736.810405 394.754891c-16.48353 7.310541-34.227463 12.256931-52.82122 14.478763 19.004336-11.383557 33.588558-29.396772 40.435279-50.868671-17.780793 10.536804-37.440415 18.183179-58.42392 22.294079-16.741549-17.872942-40.666677-29.038412-67.134113-29.038412-50.766282 0-91.948998 41.192954-91.948998 91.972548 0 7.220439 0.784296 14.222791 2.366199 20.943574-76.439183-3.841618-144.191723-40.421969-189.587726-96.109044-7.915657 13.630985-12.452493 29.422369-12.452493 46.282688 0 31.877646 16.241893 60.042683 40.924696 76.552835-15.072616-0.460748-29.26981-4.637177-41.682371-11.485946v1.131393c0 44.585086 31.698466 81.757243 73.804725 90.185867-7.723167 2.160398-15.841554 3.239573-24.246628 3.239574a91.24866 91.24866 0 0 1-17.294447-1.63105c11.691747 36.527109 45.654023 63.139936 85.90705 63.845394-31.477307 24.682804-71.144672 39.382725-114.227718 39.382725-7.42624 0-14.762379-0.410578-21.946982-1.270642 40.706609 26.070168 89.057546 41.308653 140.992081 41.308653 169.209337 0 261.697922-140.132017 261.697922-261.695874 0-3.997248-0.078839-7.979138-0.244709-11.899595a186.466924 186.466924 0 0 0 45.883373-47.618859" fill="#FFFFFF" p-id="1607"></path></svg>