<?xml version="1.0" standalone="no"?><!DOCTYPE svg PUBLIC "-//W3C//DTD SVG 1.1//EN" "http://www.w3.org/Graphics/SVG/1.1/DTD/svg11.dtd"><svg t="1532180079928" class="icon" style="" viewBox="0 0 1024 1024" version="1.1" xmlns="http://www.w3.org/2000/svg" p-id="1639" xmlns:xlink="http://www.w3.org/1999/xlink" width="32" height="32"><defs><style type="text/css"></style></defs><path d="M512.262115 959.556658c247.175132 0 447.569968-200.366167 447.569968-447.556658 0-247.16387-200.394836-447.556658-447.569968-447.556658-247.17718 0-447.556658 200.392788-447.556658 447.556658-0.001024 247.190491 200.378454 447.556658 447.556658 447.556658" fill="#537BBC" p-id="1640"></path><path d="M404.292383 436.216104h46.269378v-44.969044c0-19.828563 0.499656-50.408946 14.904699-69.347753 15.172957-20.05689 36.000832-33.690947 71.826579-33.690946 58.371702 0 82.952117 8.326235 82.952118 8.326235l-11.564785 68.550147s-19.285904-5.576079-37.275569-5.57608c-17.99888 0-34.111763 6.449454-34.111764 24.438095v52.269346h73.791416l-5.152191 66.958004h-68.639225v232.604221h-86.731278V503.174108h-46.269378v-66.958004z" fill="#FFFFFF" p-id="1641"></path></svg>