<?xml version="1.0" standalone="no"?><!DOCTYPE svg PUBLIC "-//W3C//DTD SVG 1.1//EN" "http://www.w3.org/Graphics/SVG/1.1/DTD/svg11.dtd"><svg t="1532157507689" class="icon" style="" viewBox="0 0 1024 1024" version="1.1" xmlns="http://www.w3.org/2000/svg" p-id="569" xmlns:xlink="http://www.w3.org/1999/xlink" width="32" height="32"><defs><style type="text/css"></style></defs><path d="M835.8 375c-17.7-41.9-43.1-79.6-75.4-111.9-32.3-32.3-70-57.7-111.9-75.4-43.4-18.4-89.5-27.7-137-27.7s-93.6 9.3-137 27.7c-41.9 17.7-79.6 43.1-111.9 75.4-32.3 32.3-57.7 70-75.4 111.9-18.4 43.4-27.7 89.5-27.7 137s9.3 93.6 27.7 137c17.7 41.9 43.1 79.6 75.4 111.9 32.3 32.3 70 57.7 111.9 75.4 43.4 18.4 89.5 27.7 137 27.7s93.6-9.3 137-27.7c41.9-17.7 79.6-43.1 111.9-75.4 32.3-32.3 57.7-70 75.4-111.9 18.4-43.4 27.7-89.5 27.7-137s-9.4-93.6-27.7-137zM511.4 832c-176.7 0-320-143.3-320-320s143.3-320 320-320 320 143.3 320 320-143.2 320-320 320z" fill="" p-id="570"></path><path d="M336 512.2m-48 0a48 48 0 1 0 96 0 48 48 0 1 0-96 0Z" fill="" p-id="571"></path><path d="M512 512.2m-48 0a48 48 0 1 0 96 0 48 48 0 1 0-96 0Z" fill="" p-id="572"></path><path d="M688 512.2m-48 0a48 48 0 1 0 96 0 48 48 0 1 0-96 0Z" fill="" p-id="573"></path></svg>